<?xml version="1.0" encoding="UTF-8"?> <svg xmlns="http://www.w3.org/2000/svg" id="图层_1" data-name="图层 1" viewBox="0 0 174 38"><defs><style>.cls-1{fill:#3e3a39}.cls-2{fill:#009fe8}.cls-3{fill:#00a0e9}</style></defs><g id="_编组_" data-name="&lt;编组&gt;"><g id="_编组_2" data-name="&lt;编组&gt;"><g id="_编组_3" data-name="&lt;编组&gt;"><g id="_编组_4" data-name="&lt;编组&gt;"><g id="_编组_5" data-name="&lt;编组&gt;"><g id="_编组_6" data-name="&lt;编组&gt;"><path id="_复合路径_" data-name="&lt;复合路径&gt;" class="cls-1" d="M59.11 28.27h5.16l-9.63-21h-1.42a1.23 1.23 0 0 0-1.11.7l-9.7 20.3h3.44l1.74-3.43h9.91zm-6.47-14.18l4.22 9.07h-8.62z"></path><path id="_复合路径_2" data-name="&lt;复合路径&gt;" class="cls-1" d="M70.89 28.27h-4.66V8.16a.9.9 0 0 1 .9-.9h3.76z"></path><path id="_复合路径_3" data-name="&lt;复合路径&gt;" class="cls-1" d="M75 13.67a.9.9 0 0 1 .9-.9h3.79v15.5H75z"></path><path id="_复合路径_4" data-name="&lt;复合路径&gt;" class="cls-1" d="M83.62 13.68a.91.91 0 0 1 .91-.91h3.81V14a7.3 7.3 0 0 1 1.86-1.1 6.37 6.37 0 0 1 2.45-.43 6.14 6.14 0 0 1 2.7.59 6.41 6.41 0 0 1 2.08 1.58 7.13 7.13 0 0 1 1.34 2.32 8.33 8.33 0 0 1 .47 2.81 10.72 10.72 0 0 1-.56 3.52 8.2 8.2 0 0 1-1.6 2.79 7.33 7.33 0 0 1-2.51 1.84 8 8 0 0 1-3.31.66 15.4 15.4 0 0 1-1.6-.07 4.8 4.8 0 0 1-1.31-.33v6.21h-4.73zM88.34 24a2.71 2.71 0 0 0 .21 1 2.57 2.57 0 0 0 .59.87 2.74 2.74 0 0 0 .92.58 3.28 3.28 0 0 0 1.19.21 1.86 1.86 0 0 0 1.14-.4 3.52 3.52 0 0 0 .93-1.12 6.75 6.75 0 0 0 .68-1.71 9.3 9.3 0 0 0 .24-2.17 14.66 14.66 0 0 0-.24-2.63 7.39 7.39 0 0 0-.58-1.9 3.07 3.07 0 0 0-.9-1.15 1.89 1.89 0 0 0-1.14-.38 2.52 2.52 0 0 0-.87.15 3.61 3.61 0 0 0-.8.41 4.79 4.79 0 0 0-.73.61 7.06 7.06 0 0 0-.64.74z"></path><path id="_复合路径_5" data-name="&lt;复合路径&gt;" class="cls-1" d="M111.41 13a16.76 16.76 0 0 0-9 .25c.13.39.3 1.08.42 1.48 6.16-1.1 7.35-.24 7.35 2.42v.84c-1.12-.08-2.46-.27-3.54-.29a5.4 5.4 0 0 0-5.74 5.41c0 3.71 3.52 7.15 9.28 4.61v.59H115V17c0-2.24-1.89-3.57-3.59-4zm-6.71 10.14a3.4 3.4 0 0 1 3.3-3.31 3.61 3.61 0 0 1 2.23.37v5.31a3.26 3.26 0 0 1-5.49-2.38z"></path><path id="_复合路径_6" data-name="&lt;复合路径&gt;" class="cls-1" d="M116.26 12.48h5l4.9 9.52 4-8.95a1 1 0 0 1 1-.62h2.66L126 29.73c-1.88 4.69-6.45 4-7.29 4v-2.57c.63 0 2.73 0 3.65-1a4.66 4.66 0 0 0 .55-1l.37-.79.55-1.24z"></path></g></g><ellipse id="_路径_" data-name="&lt;路径&gt;" class="cls-2" cx="77.33" cy="8.18" rx="2.53" ry="2.29"></ellipse></g><g id="_编组_7" data-name="&lt;编组&gt;"><path id="_路径_2" data-name="&lt;路径&gt;" class="cls-3" d="M22.91 25c-3.27 4-7.49 6.44-11.86 6.44-7.4 0-9.92-6.46-6.41-10.71a7.44 7.44 0 0 1 4.08-2.31c3.16-.77 8.18.48 12.89 2a25.73 25.73 0 0 0 2.09-5.09H9.19v-1.45h7.48v-2.63H7.61V9.78h9.06V6a.62.62 0 0 1 .64-.63H21v4.41h9v1.47h-9v2.63h7.31a29.8 29.8 0 0 1-3.1 7.8c2.22.8 4.21 1.56 5.7 2.05 5.34 1.78 6.55 1.88 6.55 1.88V6.43A5.93 5.93 0 0 0 31.5.5H6.28A5.93 5.93 0 0 0 .33 6.43v25.14a5.93 5.93 0 0 0 5.95 5.93H31.5a5.93 5.93 0 0 0 5.94-5.93v-.24S27.79 27.32 22.91 25z"></path><path id="_路径_3" data-name="&lt;路径&gt;" class="cls-3" d="M9.35 20.6a7.29 7.29 0 0 0-3.62 1.34c-2.85 2.48-1.15 7 4.63 7 3.36 0 6.71-2.14 9.34-5.56-3.7-1.81-6.92-3.12-10.35-2.78z"></path></g></g></g></g><g id="_编组_8" data-name="&lt;编组&gt;"><path id="_复合路径_7" data-name="&lt;复合路径&gt;" class="cls-2" d="M167.59 6.52v3.94h-.69V6.52h-1.26V5.9h3.21v.62z"></path><path id="_复合路径_8" data-name="&lt;复合路径&gt;" class="cls-2" d="M173 10.47V7.41l-1.05 2.23h-.51l-1.08-2.23v3.05h-.69V5.9h.69l1.33 2.84L173 5.9h.69v4.57z"></path></g><path class="cls-2" d="M150.34 28.8h-2.42v-7.22h-7.63v7.22h-2.42v-16h2.42v6.72h7.63v-6.75h2.42zM166 12.77l-5.9 6.85 6.19 9.18h-3l-5-7.53-1.87 2.05v5.48H154v-16h2.42v7.56h.11l6.67-7.56z"></path></svg> 