<?xml version="1.0" encoding="UTF-8"?>
<svg width="2500px" height="878px" viewBox="0 0 2500 878" version="1.1" xmlns="http://www.w3.org/2000/svg" xmlns:xlink="http://www.w3.org/1999/xlink">
    <!-- Generator: Sketch 55.2 (78181) - https://sketchapp.com -->
    <title>alipay-logo</title>
    <desc>Created with Sketch.</desc>
    <g id="Page-1" stroke="none" stroke-width="1" fill="none" fill-rule="evenodd">
        <g id="alipay-logo" fill="#FFFEF2" fill-rule="nonzero">
            <path d="M141.836755,0 C63.4329711,0 0,62.8978815 0,140.550201 L0,736.663403 C0,814.254319 63.4329711,877.187288 141.836755,877.187288 L743.622492,877.187288 C821.964872,877.187288 885.432931,814.257243 885.432931,736.663403 L885.432931,730.563967 C882.786723,729.476244 655.312241,635.475914 539.691952,580.396773 C461.688754,675.496522 361.07729,733.192631 256.614935,733.192631 C79.9710408,733.192631 19.9854502,580.034199 103.626095,479.215132 C121.863001,457.235522 152.886501,436.238373 201.035793,424.483946 C276.357695,406.150548 396.22946,435.931354 508.580732,472.662477 C528.791329,435.779307 545.791389,395.159281 558.455176,351.910591 L212.225891,351.910591 L212.225891,317.173628 L390.755757,317.173628 L390.755757,254.878087 L174.524004,254.878087 L174.524004,220.117731 L390.755757,220.117731 L390.755757,131.25777 C390.755757,131.25777 390.755757,116.289882 406.065752,116.289882 L493.340912,116.289882 L493.340912,220.114807 L707.10482,220.114807 L707.10482,254.883935 L493.340912,254.883935 L493.340912,317.173628 L667.826905,317.173628 C651.13094,384.939947 625.779973,447.317359 593.9553,502.074861 C646.911627,521.051536 694.446881,539.051599 729.873906,550.806026 C848.040987,589.978678 881.160987,594.765245 885.432931,595.265247 L885.432931,140.553125 C885.432931,62.9008055 821.97072,0 743.631264,0 L141.845527,0 L141.836755,0 Z M238.933587,475.264825 C231.351689,475.352545 223.734703,475.761903 216.062162,476.510444 C193.942201,478.712206 152.412815,488.381831 129.708057,508.279561 C61.6551871,567.078013 102.386324,674.566694 240.12365,674.566694 C320.191182,674.566694 400.191463,623.85599 463.036712,542.653951 C382.013036,503.487147 312.229166,474.422717 238.933587,475.264825 Z" id="Shape"></path>
            <path d="M2425.38863,609.797461 L2385.8651,695.072614 L2345.75384,609.797461 L2306.56657,609.797461 L2367.5931,727.69846 L2367.5931,809.941438 L2403.54352,809.941438 L2403.54352,727.69846 L2403.7599,727.239394 L2464.54081,609.797461 L2425.38863,609.797461 Z M2136.00457,661.388286 L2163.88479,744.397349 L2107.13897,744.397349 L2136.00457,661.388286 Z M2172.44914,769.619659 L2185.88194,809.929742 L2223.55751,809.929742 L2149.37596,609.782841 L2120.57177,609.782841 L2046.63584,809.929742 L2084.34357,809.929742 L2098.35824,769.619659 L2172.44914,769.619659 Z M1891.26687,705.47616 L1851.24919,705.47616 L1851.24919,637.005159 L1891.26687,637.005159 C1911.3839,637.005159 1923.39856,654.481829 1923.39856,671.376625 C1923.39856,687.905922 1912.15291,705.473236 1891.26687,705.473236 L1891.26687,705.47616 Z M1893.29904,609.791613 L1815.01806,609.791613 L1815.01806,809.938514 L1851.24626,809.938514 L1851.24626,732.990876 L1893.29612,732.990876 C1932.36058,732.990876 1959.65307,707.648682 1959.65307,671.376625 C1959.65307,635.104568 1932.36058,609.794537 1893.29612,609.794537 L1893.29904,609.791613 Z M1631.87415,809.941438 L1668.13451,809.941438 L1668.13451,609.794537 L1631.87707,609.794537 L1631.87415,809.941438 Z M1377.01068,609.797461 L1377.01068,809.944362 L1498.9731,809.944362 L1498.9731,782.672337 L1413.2418,782.672337 L1413.2418,609.797461 L1377.01068,609.797461 Z M1170.61522,661.388286 L1198.46619,744.397349 L1141.75254,744.397349 L1170.61522,661.388286 Z M1207.05979,769.619659 L1220.49259,809.929742 L1258.13892,809.929742 L1183.95737,609.782841 L1155.18534,609.782841 L1081.24648,809.929742 L1118.92205,809.929742 L1132.93965,769.619659 L1207.05979,769.619659 Z M1462.11917,218.535855 L1306.70049,218.535855 L1306.70049,163.196479 L1486.92042,163.196479 L1486.92042,128.731446 L1306.70049,128.731446 L1306.70049,58.6083928 L1226.3581,58.6083928 C1217.54813,58.6083928 1210.43115,65.9534478 1210.43115,74.9827192 L1210.43115,128.731446 L1031.47438,128.731446 L1031.47438,163.196479 L1210.43115,163.196479 L1210.43115,218.538778 L1059.38968,218.538778 L1059.38968,252.971648 L1360.23869,252.971648 C1360.23869,252.971648 1343.57197,317.650237 1261.04244,387.156329 C1187.1065,331.542099 1162.39882,287.25247 1162.39882,287.25247 L1081.68508,287.25247 C1114.34017,343.480737 1160.73507,388.504287 1210.70308,424.223711 C1164.80233,453.85247 1105.28166,482.411049 1028.32817,505.276627 L1028.32817,546.534081 C1028.32817,546.534081 1147.05666,524.282541 1261.81144,457.098095 C1376.75337,523.764996 1492.1836,546.534081 1492.1836,546.534081 L1492.1836,507.478389 C1418.30907,480.758997 1359.7767,451.372929 1313.81455,423.033648 C1380.38788,374.027628 1438.73604,307.515699 1462.11917,218.538778 L1462.11917,218.535855 Z M1966.97474,65.5148498 L1886.07387,65.5148498 L1886.07387,149.503449 L1686.66381,149.503449 L1686.66381,183.325205 L1886.07387,183.325205 L1886.07387,485.285328 C1885.36626,492.203481 1879.88379,497.589465 1873.01242,497.957888 L1831.88654,497.957888 L1831.88654,532.94339 L1936.75241,532.94339 C1953.35773,532.270873 1966.60632,518.586615 1966.97474,501.630415 L1966.97474,183.322281 L1999.81403,183.322281 L1999.81403,149.500525 L1966.97766,149.500525 L1966.97474,65.5148498 Z M1796.36303,240.302013 C1793.40688,234.304916 1787.36884,230.170398 1780.34543,230.108995 L1712.94168,230.108995 L1765.46818,394.413665 L1845.19653,394.413665 L1796.36303,240.302013 Z M1597.26291,61.5382276 L1504.47019,279.620864 L1575.66342,279.620864 L1575.66342,539.115927 L1653.51457,539.115927 L1653.51457,194.901269 L1625.2981,194.901269 L1683.92404,61.5382276 L1597.26291,61.5382276 Z M2499.98538,527.212376 L2471.55253,431.776369 C2469.64317,425.685704 2464.09637,421.279256 2457.50277,421.279256 L2382.12239,421.279256 L2403.99382,494.583607 L2315.359,494.583607 L2315.359,352.565565 L2489.38593,352.565565 L2489.38593,318.773048 L2315.359,318.773048 L2315.359,251.921937 L2489.38593,251.921937 L2489.38593,218.12942 L2055.1154,218.12942 L2055.1154,251.921937 L2229.11016,251.921937 L2229.11016,318.770124 L2055.1154,318.770124 L2055.1154,352.562641 L2229.11016,352.562641 L2229.11016,494.580683 L2055.1154,494.580683 L2055.1154,528.376123 L2500,528.376123 L2499.62865,527.212376 L2499.98538,527.212376 Z M2145.59817,137.503406 L2399.04351,137.503406 L2399.04351,187.363231 L2489.58476,187.363231 L2489.58476,128.287 C2489.55552,128.164192 2489.55552,128.102789 2489.55552,127.950741 C2489.55552,114.667069 2479.0818,103.924341 2466.11099,103.71089 L2319.59586,103.71089 L2319.59586,57.216575 L2224.86161,57.216575 L2224.86161,103.707966 L2055.08616,103.707966 L2055.08616,187.363231 L2145.59525,187.363231 L2145.59817,137.503406 Z" id="Shape"></path>
        </g>
    </g>
</svg>