<svg id="Layer_1" data-name="Layer 1" xmlns="http://www.w3.org/2000/svg" viewBox="0 0 79.8 19.92"><title>amex</title><path d="M499.48,456.37c.64-.71,1.29-1.42,1.94-2.12s1.41-1.55,2.12-2.33l1.41-1.6-.22,0H492.94a.7.7,0,0,0-.41.15c-.44.43-.84.89-1.27,1.33s-1.05,1.05-1.61,1.61c-.71-.81-1.43-1.59-2.11-2.39s-.58-.7-1.52-.7h-25.4a.86.86,0,0,0-.32,0,.66.66,0,0,0-.33.22c-.3.61-.56,1.23-.84,1.84s-.68,1.52-1,2.28c-.12.27-.26.52-.42.82a6,6,0,0,1-.34-.57c-.27-.59-.53-1.2-.8-1.79-.37-.79-.8-1.56-1.09-2.37-.15-.44-.38-.44-.72-.44H444.6v.52c0,.46,0,.93,0,1.4,0,.1-.1.21-.15.32-.06-.09-.14-.16-.19-.25-.23-.47-.45-.95-.7-1.42s-.31-.57-1-.57h-5.86c-.76,0-1.51,0-2.27,0a.52.52,0,0,0-.39.2c-.23.47-.41,1-.63,1.44-.44,1-.9,1.91-1.33,2.87-.29.62-.54,1.26-.82,1.89-.44,1-.91,1.93-1.35,2.91s-.89,2-1.35,3.05-.88,1.91-1.31,2.87-.91,2.06-1.37,3.08l-.71,1.58h10.31a.53.53,0,0,0,.36-.11,1.86,1.86,0,0,0,.24-.49l.9-2.27a.47.47,0,0,1,.5-.34h2.16c.41,0,.75-.05.92.52.23.79.69,1.52.95,2.32.11.35.26.38.55.38h11l.38,0c0-.69,0-1.34,0-2a.66.66,0,0,1,.11-.26,1.06,1.06,0,0,1,.2.17.77.77,0,0,1,.1.18c.27.64.53,1.28.8,1.9h6.05l1-2.35.15,0v2.33h21c1.12,0,2.23,0,3.35,0a.64.64,0,0,0,.43-.15c.9-.91,1.78-1.85,2.67-2.77.16-.17.29-.22.47,0,.35.44.75.85,1.13,1.27s.87.88,1.26,1.36a.64.64,0,0,0,.57.28h11.86l.29,0-1.4-1.57c-.62-.67-1.24-1.33-1.85-2l-3.51-3.88c-.64-.7-1.28-1.41-1.95-2.1a.39.39,0,0,1,0-.62C497.32,458.79,498.4,457.57,499.48,456.37ZM468,467c0,.45-.07.52-.53.52h-2.72c-.43,0-.46,0-.46-.46q0-4.94-.05-9.87a2.58,2.58,0,0,0,0-.39h-.07c-.12.28-.23.57-.35.85l-1.14,2.49c-.36.79-.71,1.59-1.07,2.38L460,466.12c-.17.36-.36.71-.5,1.09a.46.46,0,0,1-.48.32h-2.61c-.3,0-.38-.17-.48-.43-.22-.59-.55-1.13-.82-1.7s-.49-1.21-.76-1.8c-.44-.94-.9-1.86-1.33-2.79-.28-.62-.54-1.24-.81-1.86s-.66-1.41-1-2.12l-.13-.07V467c0,.49,0,.5-.51.5h-6c-.83,0-.83,0-1.13-.74s-.57-1.45-.87-2.18a.48.48,0,0,0-.52-.3H435.1l-.71,1.7c-.19.43-.35.88-.56,1.3a.52.52,0,0,1-.4.2c-1.13,0-2.26,0-3.39,0-.28,0-.28-.19-.21-.35.25-.61.54-1.19.8-1.79.12-.25.21-.51.32-.76.48-1.06,1-2.11,1.43-3.17.26-.59.5-1.18.75-1.77s.55-1.19.81-1.79l.8-1.86c.29-.65.59-1.3.88-1.94a5.85,5.85,0,0,1,.39-.84.54.54,0,0,1,.38-.22c1.6,0,3.21,0,4.82,0a.5.5,0,0,1,.35.23c.36.77.69,1.55,1,2.32.26.59.56,1.16.82,1.75s.51,1.23.78,1.84c.14.31.31.62.45.93.39.89.76,1.79,1.15,2.68.47,1.06,1,2.11,1.44,3.16l.1.12V453.5c0-.46,0-.46.47-.46h5.09a.45.45,0,0,1,.5.3c.31.73.66,1.44,1,2.15s.63,1.22.93,1.84c.42.89.81,1.79,1.23,2.68s.7,1.47,1.06,2.2c0,.07.16.16.2.14a.42.42,0,0,0,.25-.2c.29-.67.56-1.34.84-2,.37-.86.74-1.72,1.12-2.57s.82-1.77,1.22-2.65c.23-.5.45-1,.63-1.52a.48.48,0,0,1,.54-.37c1,0,2,0,3,0h2.05c.44,0,.49.05.49.48Zm24.55-6.09c.67.7,1.33,1.43,2,2.15s1.19,1.24,1.78,1.87l2.25,2.43a2.07,2.07,0,0,1-.41.08h-4.05a.72.72,0,0,1-.44-.2c-1-1.11-2-2.24-3.06-3.36l-1-1.09-1,1.06-1.41,1.47c-.43.45-.84.91-1.26,1.36-.21.23-.41.46-.64.67a.48.48,0,0,1-.32.09H471.29c-.32,0-.34-.15-.33-.39V453.53c0-.49,0-.49.51-.49h6.94c2.18,0,4.35,0,6.53,0a.86.86,0,0,1,.7.29c.84.93,1.69,1.86,2.55,2.78.49.53,1,1,1.48,1.57l1.29-1.4,2.37-2.44c.21-.22.42-.46.65-.66a.62.62,0,0,1,.37-.13c1.26,0,2.52,0,3.77,0a2.8,2.8,0,0,1,.46.09l-1.16,1.28c-.48.54-1,1.08-1.46,1.61s-.9.92-1.33,1.39c-.67.72-1.32,1.45-2,2.18l-.12.13C492,460.33,492,460.32,492.55,460.92Z" transform="translate(-425.15 -450.28)"/><path d="M438.67,455.86l-2.22,5.24H441l-2.23-5.24Z" transform="translate(-425.15 -450.28)"/><path d="M483.66,456.4a.82.82,0,0,0-.54-.22H475l-.39,0v1.92c0,.46,0,.46.48.46H482c.43,0,.49.05.49.48v2.12c0,.47-.07.53-.53.53h-7c-.16,0-.3,0-.3.22,0,.78,0,1.56,0,2.35a.85.85,0,0,0,.15,0h8.34a.44.44,0,0,0,.29-.14c1.1-1.13,2.19-2.28,3.28-3.42.48-.51.48-.51,0-1C485.69,458.62,484.69,457.5,483.66,456.4Z" transform="translate(-425.15 -450.28)"/><path d="M486.7,460.76c-1.09,1.14-2.18,2.29-3.28,3.42a.44.44,0,0,1-.29.14h-8.34a.85.85,0,0,1-.15,0c0-.79,0-1.57,0-2.35,0-.22.14-.22.3-.22h7c.46,0,.53-.06.53-.53v-2.12c0-.43-.06-.48-.49-.48h-6.87c-.48,0-.48,0-.48-.46V456.2l.39,0h8.09a.82.82,0,0,1,.54.22c1,1.1,2,2.22,3,3.33C487.18,460.25,487.18,460.25,486.7,460.76Z" transform="translate(-425.15 -450.28)"/></svg>