<svg id="Layer_1" data-name="Layer 1" xmlns="http://www.w3.org/2000/svg" viewBox="0 0 84.02 23.6"><title>paypal-02</title><path d="M266.33,412.28c-.65-2.2-2.41-3-4.42-3.12-2.4-.19-4.81-.16-7.22-.2-1.16,0-1.5.26-1.77,1.4q-1.6,6.93-3.2,13.85c-.48,2.11-.43,2.16,1.8,2.16s2.25-.05,2.73-2.15c.13-.59.27-1.17.4-1.76.37-1.64.45-1.69,2.14-1.75,2.69-.1,5.31-.45,7.52-2.2A6,6,0,0,0,266.33,412.28Zm-5.68,4.16a17.65,17.65,0,0,1-2.91,1.16l-.1-.22h-.75c-.7,0-1-.37-.84-1a18.78,18.78,0,0,1,.75-3,2.23,2.23,0,0,1,1.24-1.07,3.17,3.17,0,0,1,1.59,0c.88.15,1.82.35,2,1.41A2.49,2.49,0,0,1,260.65,416.44Z" transform="translate(-249.48 -408.96)"/><path d="M312.11,412.25c-.56-2-2.21-2.83-4.09-3-2.4-.2-4.81-.19-7.22-.23-1.46,0-1.82.28-2.14,1.71q-1.56,6.79-3.1,13.58c-.49,2.15-.49,2.15,1.66,2.13h.47c1.72,0,1.91-.17,2.29-1.85.2-.86.41-1.72.6-2.59a1.42,1.42,0,0,1,1.6-1.27,13.94,13.94,0,0,0,1.71,0c2.54-.19,5-.74,6.81-2.68A5.72,5.72,0,0,0,312.11,412.25Zm-6,4.5a15.67,15.67,0,0,1-3.48.69c-.63.07-.89-.44-.76-1,.23-1.08.46-2.16.77-3.22s1.15-.93,1.82-.89h.71c1.33.07,2.12.59,2.34,1.52A2.56,2.56,0,0,1,306.12,416.75Z" transform="translate(-249.48 -408.96)"/><path d="M276.83,413.25a16.24,16.24,0,0,0-6.87.05,2.39,2.39,0,0,0-1.84,3.29c.42-.1.83-.25,1.26-.31,1.19-.17,2.37-.38,3.56-.44a3.74,3.74,0,0,1,1.82.44,1.5,1.5,0,0,1,.52,1.09c0,.15-.55.43-.87.49-.68.13-1.4.08-2.07.23a28.67,28.67,0,0,0-4.73,1.28,4.29,4.29,0,0,0-2.29,5.25c.57,1.64,2.47,2.54,4.69,2a27.18,27.18,0,0,0,3.47-1.3c-.09.85.45,1.12,1.29,1.08.44,0,.89,0,1.33,0a1.47,1.47,0,0,0,1.63-1.26c.59-2.59,1.25-5.16,1.8-7.76C280,415.07,279.19,413.83,276.83,413.25ZM270.91,424a1.19,1.19,0,0,1-1.3-1.1,2.14,2.14,0,0,1,.67-1.51c1.23-1,2.76-1,4.28-1C274.46,423.13,273.44,424,270.91,424Z" transform="translate(-249.48 -408.96)"/><path d="M294.85,413.12c-3.65.05-3.27-.61-5.37,3.1-.06.11-.12.22-.19.33-.85,1.46-1.71,2.92-2.7,4.6a6.6,6.6,0,0,1-.32-.79c-.26-1.53-.52-3.05-.76-4.58-.42-2.66-.42-2.66-3.08-2.66-1.55,0-1.74.24-1.46,1.8.61,3.48,1.19,7,1.85,10.45a4.48,4.48,0,0,1-.72,3.67,18.14,18.14,0,0,0-1.41,2.47c-.36.7-.17,1,.61,1,.5,0,1,0,1.52,0a2.69,2.69,0,0,0,2.77-1.57c2.56-4.39,5.17-8.76,7.77-13.14.7-1.2,1.44-2.38,2.11-3.59C296,413.34,295.84,413.11,294.85,413.12Z" transform="translate(-249.48 -408.96)"/><path d="M322.94,413.32a15.29,15.29,0,0,0-7,0c-1.67.3-2.44,1.48-2.08,3.31l1.35-.33A9.56,9.56,0,0,1,320,416c.67.16,1.2.53,1.12,1.3s-.73.53-1.2.59c-2.16.28-4.36.37-6.37,1.36a4.55,4.55,0,0,0-2.57,4.84,3.62,3.62,0,0,0,4.49,2.63,28.69,28.69,0,0,0,3.84-1.36c-.11.84.43,1.11,1.27,1.07.44,0,.89,0,1.33,0a1.47,1.47,0,0,0,1.63-1.26c.6-2.62,1.25-5.23,1.81-7.85C325.85,415.15,325.06,413.91,322.94,413.32Zm-6,10.65c-.74,0-1.41-.3-1.44-1a2.22,2.22,0,0,1,.68-1.68,6.9,6.9,0,0,1,4.27-.91C320.23,423.39,319.06,423.91,316.94,424Z" transform="translate(-249.48 -408.96)"/><path d="M331.64,409.14c-1.75,0-2.15.19-2.42,1.36q-1.67,7.39-3.25,14.81a1.09,1.09,0,0,0,.37.92,2.75,2.75,0,0,0,4-1.71q1.44-6.67,2.91-13.33C333.71,409.23,333.65,409.14,331.64,409.14Z" transform="translate(-249.48 -408.96)"/></svg>