<?xml version="1.0" encoding="UTF-8"?>
<svg width="2500px" height="1529px" viewBox="0 0 2500 1529" version="1.1" xmlns="http://www.w3.org/2000/svg" xmlns:xlink="http://www.w3.org/1999/xlink">
    <!-- Generator: Sketch 55.2 (78181) - https://sketchapp.com -->
    <title>unionpay-logo</title>
    <desc>Created with Sketch.</desc>
    <g id="Page-1" stroke="none" stroke-width="1" fill="none" fill-rule="evenodd">
        <g id="unionpay-logo" transform="translate(0.000000, -0.166863)" fill="#FFFEF2" fill-rule="nonzero">
            <path d="M1853.78093,595.176523 C1834.85948,589.222528 1810.21272,610.199975 1799.4603,642.323854 C1788.14932,674.447732 1795.06159,705.325426 1814.1925,711.140956 C1833.2536,717.164183 1857.83054,696.048271 1868.65278,663.993625 C1879.75429,631.938979 1872.98167,601.061285 1853.78093,595.176523 Z" id="Path"></path>
            <path d="M1674.96214,471.579951 C1666.33921,465.87852 1652.54253,463.166863 1633.64108,463.166863 L1575.83299,463.166863 L1555,565.166863 L1623.1556,565.166863 C1640.88434,565.166863 1654.88797,560.995084 1665.30446,552.721055 C1675.514,544.447027 1682.27438,531.7231 1685.99948,514.479747 C1686.62033,511.350912 1686.89627,508.430667 1687.44813,505.78854 C1687.5861,503.285473 1688,500.851935 1688,498.418397 C1688,486.111648 1683.72303,477.211853 1674.96214,471.579951 Z" id="Path"></path>
            <polygon id="Path" points="1601.697 1087.58586 1588.104 1135.74786 1641.303 1135.74786 1654.896 1087.58586"></polygon>
            <path d="M1654.04155,900.961363 L1636,964.372363 C1636,964.372363 1666.80097,952.435363 1693.48599,949.054363 C1699.38551,926.905363 1707,900.961363 1707,900.961363 L1654.04155,900.961363 Z" id="Path"></path>
            <path d="M1627.36381,994.512363 L1609,1060.82136 C1609,1060.82136 1643.6487,1043.84736 1667.20982,1042.39836 C1674.20885,1016.86836 1681,994.512363 1681,994.512363 L1627.36381,994.512363 Z" id="Path"></path>
            <path d="M1128.9023,589.074989 C1122.19355,581.825918 1112.71831,578.166863 1100.40742,578.166863 C1084.15427,578.166863 1070.94427,583.897081 1060.56992,595.288478 C1050.12641,606.748913 1042.72604,623.939566 1038.023,646.929476 C1037.40054,650.450453 1036.84724,654.040469 1036.43226,657.423369 C1036.08645,660.944346 1035.94813,664.258207 1036.01729,667.295913 C1036.01729,680.34424 1039.40624,690.4239 1046.18415,697.534893 C1052.82374,704.645886 1062.29898,708.166863 1074.7482,708.166863 C1091.07051,708.166863 1104.28051,702.505684 1114.65486,691.252365 C1125.02921,680.068085 1132.36042,663.084548 1136.92513,640.577909 C1137.61675,637.056932 1138.17005,633.397878 1138.51586,629.669784 C1138.79251,626.079768 1139,622.696869 1139,619.590124 C1139,606.541797 1135.68021,596.324059 1128.9023,589.074989 Z" id="Path"></path>
            <path d="M2381.73364,0.512994416 L1792.04819,0.374541933 C1791.97894,0.374541933 1791.90969,0.374541933 1791.90969,0.374541933 C1791.28642,0.374541933 1790.8709,0.443768174 1790.45539,0.443768174 C1709.4299,2.93591287 1608.52894,67.8701276 1590.17702,147.964889 L1537.75284,379.66512 L1489.13755,379.66512 L1541.56173,147.964889 C1559.9829,67.8701276 1660.88387,2.93591287 1741.90935,0.443768174 C1742.32486,0.443768174 1742.80963,0.374541933 1743.2944,0.374541933 L1507.55873,0.374541933 L1088.3038,0.166863208 C1087.26501,0.166863208 1086.22622,0.236089449 1085.11818,0.305315691 C1003.88494,1.96674549 901.66818,67.3163176 883.316254,148.034115 L830.892075,379.734346 L774.243491,379.734346 L826.598417,148.034115 C844.950343,67.3855439 947.236356,1.96674549 1028.4696,0.305315691 L487.330183,0.166863208 C405.612176,0.166863208 300.902323,66.277924 282.204135,148.034115 L3.25486977,1381.50729 C1.52355606,1388.98372 0.554020387,1396.39093 0,1403.59046 L0,1426.43512 C5.54020387,1485.27743 50.5543603,1528.26692 115.23624,1529.16686 L659.699776,1529.16686 C579.297567,1527.92079 529.227975,1462.15586 547.649152,1381.29961 L612.400285,1094.97988 L669.187375,1094.97988 L604.436242,1381.29961 C586.015064,1462.22509 636.084657,1527.92079 716.417613,1529.16686 L1375.00935,1529.16686 C1294.53789,1527.92079 1244.6068,1462.15586 1262.95872,1381.29961 L1284.63477,1285.35204 L1333.25006,1285.35204 L1311.57401,1381.29961 C1293.22209,1462.22509 1343.22243,1527.92079 1423.62464,1529.16686 L2043.08868,1529.16686 C2122.38285,1525.22097 2199.25318,1461.04824 2217.32809,1381.85342 L2496.20811,148.380247 C2514.76779,66.7625077 2463.3824,0.443768174 2381.73364,0.512994416 Z M520.363648,724.757935 C490.931315,746.494975 452.842414,757.432721 406.235449,757.432721 C362.329333,757.432721 330.196151,746.287296 309.697396,723.92722 C295.500624,708.074411 288.367611,687.860348 288.367611,663.492711 C288.367611,653.38568 289.544905,642.51716 291.968744,630.887151 L341.622821,391.502807 L416.623331,391.502807 L367.592527,628.118101 C366.068971,634.763821 365.51495,640.85573 365.584203,646.324603 C365.51495,658.439195 368.49281,668.338548 374.587034,676.091887 C383.45136,687.652669 397.85589,693.398447 418.008382,693.398447 C441.06948,693.398447 460.044679,687.791122 474.795472,676.368792 C489.546264,665.084915 499.172369,649.093653 503.466027,628.187328 L552.635336,391.572034 L627.22033,391.572034 L577.566253,630.956377 C569.255947,671.592181 550.072992,702.674764 520.363648,724.757935 Z M820.088678,604.927311 L791.002607,750.510097 L736.500852,750.510097 L762.886073,618.56488 C765.586922,604.927311 764.825144,594.751053 760.600739,588.243786 C756.514838,581.667293 748.620048,578.41366 737.193377,578.41366 C723.204362,578.41366 711.431429,582.774913 701.805325,591.428193 C692.179221,600.1507 685.807986,612.265292 682.691622,627.702744 L658.383977,750.440871 L603.882222,750.440871 L646.611044,536.739462 L699.589244,536.739462 L693.564272,567.54514 L701.1128,558.753407 C718.356684,540.408453 739.201701,531.270589 763.786356,531.270589 C786.085676,531.270589 802.152268,537.777856 812.26314,550.79239 C822.166254,563.876149 824.867103,581.805746 820.088678,604.927311 Z M1786.23098,559.653348 C1831.93766,538.400892 1855.69129,551.000068 1881.66099,571.283357 L1906.4534,554.184475 L1965.24882,548.992507 L1920.92719,750.440871 L1853.19819,748.710215 L1843.22583,737.149432 C1671.68726,810.252343 1723.83443,588.520691 1786.23098,559.653348 Z M1907.49219,881.97073 L1895.30374,923.921832 L1845.78817,923.921832 C1826.88223,924.960226 1817.25612,917.899149 1816.28659,902.254019 L1814.00125,847.842193 L1881.45323,847.842193 L1884.29259,872.625187 C1883.80782,878.994001 1887.68596,881.97073 1895.65001,881.97073 L1907.49219,881.97073 L1907.49219,881.97073 Z M1515.86903,404.240436 L1669.81745,404.240436 C1699.31903,404.240436 1722.10312,411.024608 1737.96195,424.177594 C1753.68228,437.469032 1761.50782,456.575475 1761.50782,481.496922 L1761.50782,482.25841 C1761.50782,486.965795 1761.16156,492.365442 1760.67679,498.11122 C1759.91501,503.787771 1759.08398,509.602776 1757.69893,515.625459 C1750.91218,548.57715 1735.19185,575.021574 1710.88421,595.16641 C1686.36881,615.172794 1657.49049,625.279826 1624.31852,625.279826 L1541.76948,625.279826 L1516.28455,750.440871 L1444.88517,750.440871 L1515.86903,404.240436 Z M1254.0944,536.808689 L1307.14185,536.808689 L1301.11688,567.614366 L1308.5269,558.822634 C1325.70153,540.47768 1346.68506,531.339816 1371.20046,531.339816 C1393.36127,531.339816 1409.49712,537.847082 1419.60799,550.861616 C1429.3726,563.876149 1432.21195,581.874972 1427.43353,604.927311 L1398.34746,750.510097 L1343.8457,750.510097 L1370.23092,618.56488 C1372.93177,604.927311 1372.3085,594.751053 1368.08409,588.243786 C1363.72118,581.667293 1356.03415,578.41366 1344.67673,578.41366 C1330.68772,578.41366 1318.91478,582.774913 1309.21943,591.428193 C1299.59332,600.1507 1293.22209,612.265292 1290.17498,627.702744 L1265.79808,750.440871 L1211.36558,750.440871 L1254.0944,536.808689 Z M1237.19678,875.948047 L1226.32413,916.099267 L1124.66139,916.099267 C1112.9577,933.682732 1098.55317,941.920655 1081.17078,940.882261 L1028.19259,940.882261 L1039.75776,898.931159 L1050.00714,898.931159 C1059.49474,898.931159 1065.79672,895.815978 1068.77458,889.585616 L1095.36756,849.711301 L1166.62843,849.711301 L1151.73913,875.948047 L1237.19678,875.948047 L1237.19678,875.948047 Z M905.20006,750.371644 L846.612404,750.371644 L892.526843,536.808689 L951.253004,536.808689 L905.20006,750.371644 Z M959.147795,510.848848 L899.936866,510.848848 L910.948021,458.929167 L970.228202,458.929167 L959.147795,510.848848 Z M980.75459,660.100625 C981.377863,654.631752 982.139641,649.439784 983.109176,644.524721 C990.172936,609.773147 1004.92373,582.221103 1027.77707,561.937814 C1050.56116,541.516073 1078.12367,531.270589 1110.32611,531.270589 C1136.78058,531.270589 1157.69485,538.677797 1172.99966,553.422987 C1188.30448,568.237402 1195.99151,588.313013 1195.99151,613.719043 C1195.99151,618.080296 1195.64525,623.133812 1195.09123,628.533459 C1194.32945,634.071558 1193.56767,639.332753 1192.59814,644.524721 C1185.81139,678.653258 1171.06059,705.928397 1148.138,725.865555 C1125.28466,746.010391 1097.86065,755.97897 1065.86597,755.97897 C1039.4115,755.97897 1018.56648,748.710215 1003.26167,734.24193 C987.81835,719.496741 980.062064,699.767262 979.992812,674.638136 C979.992812,670.207656 980.269822,665.36182 980.75459,660.100625 Z M1152.98568,1202.48823 L1038.37271,1202.48823 C1016.55816,1202.48823 1009.14813,1190.02751 1015.93488,1165.10606 L1037.68018,1085.77279 L990.865462,1085.77279 L1002.70765,1042.0218 L1049.59162,1042.0218 L1061.01829,1000.0707 L1016.28115,1000.0707 L1028.05408,956.527392 L1215.31297,956.527392 L1203.40153,1000.0707 L1128.12401,1000.0707 L1116.62809,1042.16025 L1189.89729,1042.16025 L1177.98585,1085.77279 L1104.6474,1085.77279 L1087.61127,1147.86872 C1083.45612,1158.18343 1088.99632,1162.89082 1104.23188,1161.85242 L1163.92758,1161.85242 L1152.98568,1202.48823 Z M1454.92679,1077.81177 C1449.17883,1098.64887 1433.94327,1109.44816 1409.28936,1110.55578 L1376.74066,1110.55578 L1376.60216,1155.69129 C1375.97888,1162.75237 1382.55788,1166.49058 1396.06212,1166.49058 L1426.53324,1166.49058 L1416.49162,1202.34978 L1343.22243,1202.34978 C1322.79293,1203.11126 1312.6128,1193.41959 1312.88981,1172.72094 L1317.46048,1051.43657 L1378.61048,1051.43657 L1377.36393,1077.81177 L1393.63828,1077.81177 C1401.87934,1077.81177 1405.96524,1075.11194 1405.96524,1069.9892 L1410.81292,1052.89032 L1461.50578,1052.89032 L1454.92679,1077.81177 Z M1416.00686,1040.36037 L1281.72616,1040.36037 L1250.28551,1155.55284 C1248.48494,1161.64475 1250.97803,1164.89838 1257.83404,1164.89838 L1284.28851,1164.89838 L1274.5239,1200.68835 L1207.34893,1200.68835 C1181.51773,1200.68835 1170.85284,1193.07346 1175.07724,1177.3591 L1263.99751,849.36517 L1326.67107,849.36517 L1323.83171,874.909653 C1323.83171,874.909653 1359.21977,848.396003 1391.21444,848.396003 L1509.77481,848.396003 L1464.48364,1012.39297 C1460.744,1031.22251 1444.60816,1040.4296 1416.00686,1040.36037 Z M1703.12792,1182.34339 L1697.31071,1202.55745 L1627.98891,1202.55745 L1633.80612,1182.34339 L1496.89383,1182.34339 L1510.12107,1135.68491 L1523.83307,1135.68491 L1590.73104,900.592589 L1576.94978,900.592589 L1591.0773,850.818921 L1662.68443,850.818921 L1659.56807,869.163875 C1659.56807,869.163875 1696.06416,850.818921 1722.51864,850.818921 C1748.90386,850.818921 1811.02339,850.818921 1811.02339,850.818921 L1796.96512,900.592589 L1783.11462,900.592589 L1716.21665,1135.68491 L1730.13642,1135.68491 L1717.04768,1182.34339 L1703.12792,1182.34339 Z M1999.80584,982.90259 L1930.41479,982.90259 L1918.43409,1024.85369 L1987.82515,1024.85369 L1974.80567,1069.85075 L1897.58908,1069.85075 L1880.13744,1096.22595 L1917.74157,1096.22595 L1926.53664,1149.25325 C1927.57543,1154.51444 1932.21535,1157.00659 1940.17939,1157.00659 L1951.95233,1157.00659 L1939.55612,1200.61912 L1897.93534,1200.61912 C1876.46705,1201.72674 1865.38664,1194.59644 1864.41711,1178.88208 L1854.30623,1130.70062 L1819.95697,1182.13571 C1811.92368,1196.67322 1799.25046,1203.4574 1782.49134,1202.34978 L1718.9175,1202.34978 L1731.45221,1158.73724 L1751.11994,1158.73724 C1759.22249,1158.73724 1766.21699,1155.06825 1772.24197,1147.86872 L1826.0512,1070.05843 L1756.52164,1070.05843 L1769.54112,1025.06137 L1844.81864,1025.06137 L1856.86858,983.179495 L1781.45255,983.179495 L1794.40278,938.043985 L2012.54831,938.043985 L1999.80584,982.90259 Z M2081.52385,791.630484 C2059.08602,839.673496 2037.54848,867.640898 2024.87526,880.655431 C2012.13279,893.600738 1987.13262,923.506475 1926.67515,921.291235 L1931.93834,884.670553 C1982.70046,869.094649 2010.19372,798.622335 2025.91405,767.332074 L2007.21586,537.362499 L2046.34355,536.808689 L2079.23851,536.808689 L2082.77039,681.076176 L2144.68217,536.808689 L2207.28647,536.808689 L2081.52385,791.630484 Z" id="Shape"></path>
            <path d="M1301.94213,965.308773 L1293,997.807773 L1388.66004,997.807773 C1396.49307,998.911773 1400.92948,995.806773 1401.48403,988.492773 L1408,965.308773 L1301.94213,965.308773 Z" id="Path"></path>
            <path d="M1321.73509,895.621363 L1309,939.712363 C1309,939.712363 1326.67602,927.085363 1356.18246,926.602363 C1385.75848,926.188363 1419.44035,926.602363 1419.44035,926.602363 L1428,895.621363 L1321.73509,895.621363 L1321.73509,895.621363 Z" id="Path"></path>
        </g>
    </g>
</svg>