<svg id="Layer_1" data-name="Layer 1" xmlns="http://www.w3.org/2000/svg" viewBox="0 0 74.64 24.25"><title>visa</title><path d="M479.89,461.7a6.32,6.32,0,0,0-2.45-2.52c-1.11-.67-2.26-1.25-3.4-1.87a6.19,6.19,0,0,1-1.67-1.19A1.4,1.4,0,0,1,472,455a2.05,2.05,0,0,1,1.46-1.73,6.57,6.57,0,0,1,4.91.12c.68.3,1.33.66,2,1q.47-2.5.93-5.07a17.47,17.47,0,0,0-5.07-1.12,15,15,0,0,0-4.32.37,8.74,8.74,0,0,0-4,2,6.54,6.54,0,0,0-1.9,6.35,5.87,5.87,0,0,0,2.81,4c1,.63,2,1.14,3.08,1.7a6.7,6.7,0,0,1,1.86,1.3,1.88,1.88,0,0,1,0,2.64,3.23,3.23,0,0,1-1.56.82,10.82,10.82,0,0,1-4.28,0,11.54,11.54,0,0,1-3.58-1.16c-.34,1.57-.68,3.11-1,4.65a.28.28,0,0,0,.14.24,7.66,7.66,0,0,0,.93.4,13.25,13.25,0,0,0,3.73.77,18.6,18.6,0,0,0,2.89,0,12.12,12.12,0,0,0,5.52-2,8.6,8.6,0,0,0,3.44-3.91A5.44,5.44,0,0,0,479.89,461.7Z" transform="translate(-426.95 -448.11)"/><path d="M457.24,448.51c-.22,0-.22.12-.25.28l-.69,4.37-.69,4.29c-.25,1.59-.49,3.17-.74,4.76-.21,1.32-.43,2.64-.64,4-.23,1.49-.47,3-.7,4.46-.06.33-.1.66-.14,1h6.15q1.89-11.56,3.76-23.1l-.15,0Z" transform="translate(-426.95 -448.11)"/><path d="M454.62,448.52h-6.3a.33.33,0,0,0-.38.28q-2.4,7.2-4.82,14.39c-.2.6-.41,1.2-.64,1.88-.05-.21-.09-.34-.12-.47a10.41,10.41,0,0,0-1-3.07c-.19-.29-.33-.61-.5-.91a21.75,21.75,0,0,0-6.25-7c-.31-.22-.64-.41-1-.65,0,.12,0,.17,0,.21q1.28,4.81,2.53,9.64c.76,2.87,1.51,5.73,2.26,8.6.05.23.15.28.37.28H445c.19,0,.29,0,.36-.23q1.92-4.79,3.86-9.56,2.31-5.75,4.61-11.49C454.12,449.77,454.36,449.17,454.62,448.52Z" transform="translate(-426.95 -448.11)"/><path d="M440,457.72a16.46,16.46,0,0,1,1.68,3.19c0-.16-.05-.31-.09-.46q-.78-3.93-1.57-7.88a10.86,10.86,0,0,0-.38-1.71,3.6,3.6,0,0,0-3.35-2.23H427s0,0,0,0l.15.07a31,31,0,0,1,8.38,4.41A19,19,0,0,1,440,457.72Z" transform="translate(-426.95 -448.11)"/><path d="M499.11,459.65q-1.14-5.44-2.27-10.89c0-.18-.09-.25-.28-.25h-5.93a.26.26,0,0,0-.29.19l-3.93,8.95q-2.88,6.53-5.73,13.06c-.13.3-.26.6-.39.92l.17,0h5.78c.18,0,.23-.08.28-.22l1.05-2.72a.39.39,0,0,1,.42-.31c2.09,0,4.18,0,6.27,0h1.07c.22,1.08.43,2.16.63,3.22h5.64c-.07-.33-.12-.63-.18-.92ZM489.37,464l3.31-8.7h.06c.58,2.89,1.17,5.77,1.76,8.7Z" transform="translate(-426.95 -448.11)"/></svg>