<?xml version="1.0" encoding="UTF-8"?>
<svg width="1963px" height="1732px" viewBox="0 0 1963 1732" version="1.1" xmlns="http://www.w3.org/2000/svg" xmlns:xlink="http://www.w3.org/1999/xlink">
    <!-- Generator: Sketch 55.2 (78181) - https://sketchapp.com -->
    <title>WeChat-Pay-logo</title>
    <desc>Created with Sketch.</desc>
    <g id="Page-1" stroke="none" stroke-width="1" fill="none" fill-rule="evenodd">
        <g id="WeChat-Pay-logo" transform="translate(-1.000000, 0.000000)" fill="#FFFEF2">
            <g id="Group-22" transform="translate(0.500000, 0.000000)">
                <path d="M556.00721,1616.20307 C549.267478,1620.1004 542.469826,1623.90293 535.756421,1627.83187 C516.105891,1639.1552 496.423767,1650.4838 476.773236,1661.80713 C468.116893,1666.84207 459.455285,1671.9086 450.830534,1676.96987 C439.56781,1683.32147 428.389333,1689.8574 417.126609,1696.26693 C396.696797,1707.7746 376.77773,1720.2408 355.926684,1731.05853 C341.188786,1734.47133 324.32366,1728.3304 317.641848,1714.24733 C311.349676,1702.77127 315.093387,1689.494 318.510641,1677.80727 C323.960346,1658.03093 329.236293,1638.19667 334.564893,1618.38873 C339.809247,1598.49653 345.201033,1578.63067 350.503306,1558.7648 C353.441408,1547.9734 356.437429,1537.21887 358.949033,1526.36953 C361.70811,1516.484 364.793644,1506.68273 366.410126,1496.5286 C368.116121,1482.98273 364.793644,1469.34733 358.680496,1457.27613 C353.646759,1449.0022 346.970212,1441.8132 339.240582,1435.9988 C325.250373,1425.66033 311.349676,1415.206 297.83862,1404.23553 C287.355177,1395.66667 277.077086,1386.88713 266.951692,1377.8706 C257.579252,1369.50713 248.259467,1361.0594 239.213483,1352.3378 C227.26099,1340.62473 215.54544,1328.69573 204.224797,1316.35067 C195.384164,1306.6126 186.548797,1296.87453 178.10307,1286.77833 C170.099639,1277.21933 162.312089,1267.48127 154.735156,1257.56413 C142.393022,1241.564 130.861762,1224.96347 119.625365,1208.12067 C117.377033,1204.70787 115.223478,1201.23187 113.033065,1197.78747 C100.93314,1178.63787 89.7283356,1158.91947 79.3344053,1138.785 C72.1418476,1124.49127 65.2230916,1110.05007 58.6623838,1095.45613 C56.4456439,1089.8524 54.1077994,1084.31187 51.8647324,1078.76607 C43.5664374,1058.6 36.4370648,1037.95467 30.0817082,1017.10393 C24.3634669,997.8648 19.3876492,978.420267 15.1331935,958.823 C11.0630273,938.746467 7.70369214,918.5172 5.30792806,898.203667 C-1.94254915,838.274267 -0.921058533,777.449533 7.88798168,717.7624 C10.8787377,698.254667 14.417097,678.804867 18.9716814,659.597333 C23.6736975,639.5524 29.1865876,619.718133 35.7472954,600.2104 C42.3080031,579.775733 50.3640889,559.909867 58.4833597,540.070333 L59.1994562,538.306 C68.3086251,518.440133 77.6231452,498.690133 88.1697726,479.5458 C111.237558,437.3282 138.228078,397.264667 168.604261,359.960867 C172.111027,355.6422 175.707306,351.386733 179.208807,347.104933 C192.688271,331.1048 206.857504,315.763 221.479563,300.810933 C226.813429,295.354667 232.263134,290.0248 237.744432,284.689667 C252.871971,269.795533 268.689279,255.622933 284.869901,241.9296 C289.60351,237.974333 294.363445,234.050667 299.186566,230.216533 C336.513097,200.101733 376.119553,172.830933 417.489923,148.562133 C433.723199,139.092667 450.198684,130.012933 466.858459,121.2966 C470.633762,119.347933 474.493311,117.430867 478.331799,115.540133 C497.892818,105.8916 517.696046,96.7223333 537.762545,88.243 C576.679231,71.732 616.548958,57.4698667 657.113719,45.6936 C678.559756,39.4947333 700.163756,33.7382667 721.967842,28.9772 C739.943971,24.7217333 758.067531,21.1562 776.280604,17.9172 C798.242652,13.7828667 820.410051,10.7861333 842.577451,8.1212 C878.766652,3.71826667 915.161204,1.29033333 951.592614,0 L1009.07516,0 C1051.61445,1.22713333 1094.06423,4.46613333 1136.24547,10.0698667 C1156.22772,12.7032 1176.1152,15.9106 1195.91843,19.5393333 C1215.86909,23.2523333 1235.70391,27.5394 1255.44395,32.2688667 C1275.54731,37.1879333 1295.58748,42.4598667 1315.38544,48.5428667 C1356.46095,60.7984 1396.66239,75.7820667 1435.99505,92.8566 C1455.94571,101.5466 1475.44881,111.195133 1495.00983,120.785733 L1496.59998,121.5336 C1516.21892,132.082733 1535.84312,142.631867 1554.8618,154.2554 C1597.07464,179.482733 1637.15498,208.191333 1674.99226,239.564867 C1675.79787,240.2232 1677.35643,241.508267 1678.13571,242.171867 C1697.01223,258.409 1715.70445,274.8884 1733.22776,292.6002 C1736.19219,295.596933 1739.18821,298.6516 1742.24741,301.648333 C1756.50616,316 1769.77501,331.283867 1783.01753,346.562467 C1775.19838,349.9226 1767.41083,353.367 1759.6812,356.900933 C1750.78265,360.829867 1741.8841,364.721933 1733.04873,368.7088 C1713.48771,377.3672 1693.98461,386.178333 1674.4236,394.836733 C1657.04772,402.5998 1639.67185,410.268067 1622.38549,418.1786 C1619.86863,419.200333 1617.38335,420.2484 1614.92967,421.328067 C1594.88423,430.165533 1574.93357,439.213667 1554.8934,448.051133 C1514.87097,465.942 1474.79063,483.680133 1434.79453,501.597333 C1395.07224,519.1564 1355.38154,536.805 1315.74875,554.574733 C1295.79809,563.533333 1275.81584,572.312867 1255.86518,581.245133 C1243.43354,586.727733 1231.02822,592.3578 1218.68608,597.993133 C1210.93013,601.137333 1203.34793,604.644933 1195.68148,607.9998 C1175.45702,617.079533 1155.17991,626.069733 1134.89753,635.059933 C1118.51155,642.401667 1102.12558,649.7118 1085.76593,657.085133 C1082.38027,658.549267 1079.0262,660.018667 1075.70372,661.488067 C1055.65829,670.2992 1035.73922,679.315733 1015.73064,688.1848 C975.676625,706.012467 935.622609,723.7822 895.631778,741.6994 C865.013387,755.155733 834.5161,768.9386 803.992486,782.574 C794.914909,786.708333 785.568797,790.305467 775.833043,792.3384 C755.940303,795.698533 735.152443,793.181067 716.818266,784.728067 C712.384786,782.5108 708.072411,780.056533 703.875874,777.386333 C688.506126,766.273667 672.988947,755.3032 657.50336,744.338 C644.892689,735.3478 632.339939,726.268067 619.634491,717.4306 C612.14707,712.037533 604.628057,706.612867 597.051124,701.309333 C577.727049,687.405333 558.313462,673.564533 538.873547,659.781667 C538.515499,659.5394 537.794137,659.060133 537.436089,658.823133 C523.44588,648.721667 509.424078,638.657067 495.31803,628.708333 C489.863059,624.8426 483.544561,622.5358 477.189204,620.7978 C456.011703,619.6286 437.619606,639.9158 442.379542,660.919267 C459.339445,700.593067 478.121183,739.4242 495.612893,778.8294 C504.990598,799.322 514.278791,819.819867 523.682824,840.280867 C527.337022,848.344133 530.964893,856.433733 534.587499,864.523333 C539.921365,876.120533 545.313151,887.717733 550.525912,899.372867 C559.571896,919.091267 568.438856,938.8676 577.548025,958.580733 C583.329451,971.226 589.110877,983.9292 594.950223,996.574467 C598.277966,1004.00573 601.600443,1011.4686 604.986105,1018.89987 C615.653837,1039.69267 622.182952,1062.85547 636.504882,1081.58373 C642.223124,1086.9452 648.483703,1091.76947 655.344539,1095.6984 C675.326791,1105.5576 699.742523,1104.3568 718.824389,1092.88073 C725.743145,1088.83593 732.603982,1084.7016 739.496411,1080.6252 C752.138673,1073.52573 764.628239,1066.21033 777.212582,1059.02133 C817.113901,1035.89013 857.078405,1012.81687 897.037644,989.712 C914.266084,979.8844 931.431338,969.909333 948.565,959.839467 C951.381998,958.1594 954.288507,956.542533 957.163424,954.925667 C977.114084,943.570733 996.943639,932.005133 1016.83638,920.529067 C1028.16229,914.024733 1039.51452,907.552 1050.74565,900.9318 C1059.49678,895.865267 1068.27422,890.804 1077.05167,885.769067 C1096.91282,874.293 1116.71078,862.7274 1136.66671,851.3988 C1142.74826,847.9544 1148.76663,844.420467 1154.79027,840.854933 C1168.8068,832.702133 1182.88652,824.670467 1196.87673,816.4334 C1236.80964,793.418067 1276.86366,770.529133 1316.67547,747.303133 C1331.86619,738.465667 1347.11483,729.807267 1362.2687,720.964533 C1366.79169,718.357533 1371.31995,715.7242 1375.86927,713.1172 C1395.7936,701.577933 1415.80218,690.165067 1435.66333,678.504667 C1446.12044,672.606 1456.45645,666.523 1466.81879,660.466333 C1476.28601,655.046933 1485.78482,649.7118 1495.22044,644.2292 C1535.543,620.913667 1575.83395,597.545467 1616.21443,574.293133 C1635.05935,563.296333 1654.0517,552.5102 1672.89663,541.423867 C1674.36041,540.5812 1675.89265,539.7122 1677.41962,538.9064 C1697.12807,527.6094 1716.72068,516.133333 1736.43439,504.836333 C1750.4246,496.804667 1764.3253,488.562333 1778.34184,480.504333 C1784.00742,477.296933 1789.63615,474.0316 1795.29647,470.797867 C1814.2625,460.280333 1832.47557,448.440867 1852.005,438.945067 C1858.80792,453.028133 1867.58537,466.031533 1874.89376,479.846 C1885.67733,499.833 1895.80273,520.178133 1904.73287,541.060467 C1907.27607,546.996 1909.70342,552.989467 1912.13078,558.977667 C1917.73318,572.855333 1922.91435,586.848867 1927.61637,601.0478 C1933.94013,620.107867 1939.33192,639.462867 1944.03393,659.0022 C1948.73595,678.804867 1952.42174,698.855067 1955.44935,718.989533 C1958.23476,738.7922 1960.30407,758.721267 1961.4414,778.7346 C1962.54598,798.7848 1962.81567,818.919267 1962.2786,838.9958 C1961.55724,858.9828 1960.18296,878.9382 1957.87671,898.772467 C1955.50727,918.669933 1952.24272,938.446267 1948.2568,958.069867 C1944.06553,977.9094 1939.08971,997.5646 1933.37147,1017.04073 C1920.78712,1058.77907 1904.34323,1099.38507 1884.54,1138.2478 C1863.12029,1180.37587 1837.56723,1220.34987 1808.83912,1257.89067 C1803.74747,1264.48453 1798.53471,1271.0468 1793.29035,1277.51953 C1782.38568,1290.7652 1771.21246,1303.7686 1759.59169,1316.38227 C1751.38291,1325.1618 1743.08461,1333.8518 1734.6073,1342.38907 C1722.14406,1354.6446 1709.41228,1366.66313 1696.32246,1378.22873 C1689.51954,1384.31173 1682.56919,1390.21567 1675.59252,1396.0564 C1658.45359,1410.40807 1640.78286,1424.1014 1622.59611,1437.1364 C1619.90022,1439.05347 1617.23592,1440.9758 1614.54002,1442.89287 C1594.91582,1456.73367 1574.84406,1469.94773 1554.20363,1482.2928 C1546.20546,1487.09073 1538.11778,1491.73067 1529.97219,1496.31793 C1518.43566,1502.817 1506.7833,1509.2002 1494.97823,1515.19367 C1475.23819,1525.26353 1455.22961,1534.75933 1434.91564,1543.57047 C1425.42209,1547.7364 1415.86537,1551.66007 1406.30864,1555.58373 C1395.52506,1559.8392 1384.64672,1563.9156 1373.74204,1567.9288 C1354.51274,1575.06513 1334.97805,1581.44307 1315.35911,1587.46813 C1294.8082,1593.55113 1274.10458,1599.18647 1253.2588,1604.1582 C1235.5828,1608.5348 1217.69619,1612.03713 1199.90435,1615.84493 C1198.88286,1615.9924 1196.87673,1616.2926 1195.8921,1616.44533 C1175.96777,1620.01087 1156.01711,1623.2446 1135.97694,1625.8832 C1116.0842,1628.4902 1096.16513,1630.61793 1076.18288,1632.2032 C1056.16903,1633.641 1036.12886,1634.89973 1016.08869,1635.4422 C996.106437,1636.011 976.155778,1636.13213 956.173526,1635.6792 C936.191274,1635.19993 916.209022,1634.273 896.258362,1632.8352 C876.27611,1631.3974 856.357043,1629.41713 836.464303,1626.93127 C818.519767,1624.714 800.664743,1621.86473 782.841311,1618.98913 C776.401708,1617.88313 769.993697,1616.5928 763.548829,1615.60267 C748.094834,1612.45847 732.635574,1609.31427 717.265826,1605.68553 C696.957118,1600.9824 676.827435,1595.4366 656.724078,1589.9224 C637.010362,1584.68207 615.864454,1586.35687 596.961612,1593.78813" id="Fill-21"></path>
            </g>
        </g>
    </g>
</svg>